<?xml version="1.0" standalone="no"?>
<!DOCTYPE svg PUBLIC "-//W3C//DTD SVG 20010904//EN"
 "http://www.w3.org/TR/2001/REC-SVG-20010904/DTD/svg10.dtd">
<svg version="1.0" xmlns="http://www.w3.org/2000/svg"
 width="318.000000pt" height="159.000000pt" viewBox="0 0 318.000000 159.000000"
 preserveAspectRatio="xMidYMid meet">

<g transform="translate(0.000000,159.000000) scale(0.100000,-0.100000)"
fill="#000000" stroke="none">
<path d="M162 1428 c-6 -8 -13 -116 -17 -260 l-7 -246 24 -5 c23 -4 23 -4 1
-6 -43 -2 -22 -38 22 -37 20 0 31 -5 33 -16 2 -13 -6 -17 -35 -20 -36 -3 -38
-5 -38 -38 0 -34 1 -35 38 -32 28 3 37 0 37 -12 0 -11 -10 -16 -34 -16 -46 0
-59 -29 -13 -31 29 -2 29 -2 6 -6 -34 -5 -34 -5 -34 -281 0 -210 1 -224 19
-238 16 -11 82 -14 366 -14 323 0 348 1 363 18 15 16 17 51 17 285 l0 267 -41
0 c-52 0 -48 24 4 28 35 3 37 5 37 38 0 33 -1 34 -40 34 -27 0 -40 4 -40 14 0
14 55 30 71 20 5 -3 9 108 9 265 0 232 -2 272 -16 285 -13 14 -61 16 -368 16
-271 0 -356 -3 -364 -12z m506 -152 c31 -19 50 -42 68 -79 22 -48 24 -64 24
-209 l0 -158 -75 0 -75 0 0 135 c0 175 -13 205 -89 205 -56 0 -65 -26 -71
-189 l-5 -146 -78 -3 -79 -3 4 163 c3 143 6 168 25 203 47 89 103 117 223 112
72 -3 91 -7 128 -31z m-218 -635 c0 -128 2 -152 18 -171 24 -30 86 -30 116 -1
19 20 21 34 24 171 l3 150 75 0 75 0 -3 -167 c-3 -144 -6 -174 -23 -207 -30
-59 -81 -95 -153 -108 -117 -22 -220 21 -263 109 -22 43 -24 64 -27 211 l-4
162 81 0 81 0 0 -149z"/>
<path d="M1040 1311 c0 -105 2 -120 18 -124 16 -4 16 -5 0 -6 -10 0 -18 -7
-18 -15 0 -8 8 -17 18 -19 16 -4 16 -5 0 -6 -16 -1 -18 -14 -18 -120 0 -99 3
-120 16 -125 20 -8 268 -8 288 0 13 5 16 26 16 126 0 71 -4 117 -9 113 -5 -3
-12 -1 -16 5 -3 5 1 10 9 10 22 0 20 27 -1 33 -17 4 -17 5 0 6 16 1 17 12 15
119 l-3 117 -157 3 -158 3 0 -120z m227 45 c25 -21 28 -31 31 -100 l4 -76 -36
0 -36 0 0 64 c0 48 -4 65 -15 70 -34 13 -45 -4 -45 -70 l0 -64 -35 0 -35 0 0
71 c0 65 2 73 29 100 38 38 97 40 138 5z m-97 -265 c0 -71 10 -88 45 -75 11 5
15 23 15 75 l0 69 36 0 36 0 -4 -80 c-4 -96 -21 -119 -91 -127 -41 -5 -49 -2
-77 25 -28 29 -30 35 -30 106 l0 76 35 0 35 0 0 -69z"/>
<path d="M1466 1414 c-8 -20 -8 -188 0 -208 3 -9 14 -16 23 -17 11 0 9 -3 -6
-9 -26 -11 -31 -30 -8 -30 8 0 15 -3 15 -6 0 -3 -7 -12 -15 -20 -11 -12 -15
-40 -15 -115 0 -98 0 -100 26 -109 14 -6 85 -10 159 -10 112 0 134 2 139 16 3
9 6 61 6 116 0 84 -3 103 -17 114 -17 13 -17 13 0 14 9 0 17 6 17 14 0 8 -8
17 -17 19 -17 4 -17 5 0 6 15 1 17 13 17 105 0 57 -3 111 -6 120 -5 14 -29 16
-159 16 -130 0 -154 -2 -159 -16z m204 -134 l0 -100 -30 0 c-29 0 -30 2 -30
44 0 41 -2 45 -27 48 -39 4 -45 43 -9 52 14 3 33 17 42 31 9 14 25 25 35 25
17 0 19 -9 19 -100z m0 -223 l0 -103 -30 0 c-30 0 -32 3 -32 46 0 11 0 52 1
90 l1 70 30 0 30 0 0 -103z"/>
<path d="M1897 1423 c-4 -3 -7 -57 -7 -119 0 -99 2 -113 18 -117 16 -4 16 -5
0 -6 -10 0 -18 -7 -18 -15 0 -8 8 -17 18 -19 16 -4 16 -5 0 -6 -16 -1 -18 -14
-18 -120 0 -99 3 -120 16 -125 9 -3 78 -6 154 -6 100 0 141 3 147 13 4 6 8 59
8 117 0 94 -2 106 -20 117 -20 12 -19 12 3 13 28 0 29 18 0 29 -21 7 -21 8 -2
13 21 5 20 1 15 211 l-1 27 -153 0 c-85 0 -157 -3 -160 -7z m226 -71 c24 -25
33 -90 17 -136 -10 -32 -15 -36 -47 -36 -30 0 -34 3 -27 18 17 39 17 95 -1
108 -28 20 -45 6 -45 -37 0 -38 -1 -39 -35 -39 -32 0 -35 3 -35 29 0 51 21 92
54 107 38 18 94 11 119 -14z m-13 -196 c0 -2 -20 -28 -45 -57 -25 -29 -45 -61
-45 -71 0 -16 8 -18 63 -16 66 3 63 5 58 -47 -1 -12 -19 -15 -97 -15 l-97 0 6
56 c4 43 14 66 43 105 34 44 42 49 76 49 21 0 38 -2 38 -4z"/>
<path d="M2320 1311 c0 -105 2 -120 18 -124 16 -4 16 -5 0 -6 -10 0 -18 -7
-18 -15 0 -8 8 -17 18 -19 16 -4 16 -5 0 -6 -16 -1 -18 -14 -18 -121 0 -143
-15 -132 180 -128 l135 3 3 123 c2 77 -1 121 -7 118 -5 -4 -12 -2 -16 4 -3 5
1 10 9 10 22 0 20 27 -1 33 -17 4 -17 5 0 6 16 1 17 12 15 119 l-3 117 -157 3
-158 3 0 -120z m210 54 c42 -22 59 -82 39 -138 l-14 -42 -57 -3 c-64 -3 -76 8
-25 23 29 9 32 14 35 51 5 68 -51 90 -64 24 -5 -25 -11 -30 -35 -30 -27 0 -29
3 -29 36 0 74 79 116 150 79z m39 -236 c15 -43 14 -83 -3 -124 -41 -96 -186
-62 -186 44 0 39 2 41 29 41 26 0 30 -4 33 -31 7 -70 68 -59 68 11 0 53 -8 70
-35 70 -13 0 -27 5 -30 10 -4 6 16 10 53 10 58 0 60 -1 71 -31z"/>
<path d="M2746 1414 c-3 -9 -6 -63 -6 -120 0 -101 1 -104 23 -105 l22 0 -22
-9 c-27 -11 -30 -30 -5 -30 16 -1 16 -1 0 -11 -15 -9 -18 -26 -18 -117 0 -71
4 -112 12 -120 17 -17 289 -17 306 0 8 8 12 49 12 116 0 88 -3 107 -17 118
-17 13 -17 13 0 14 24 0 21 19 -5 29 l-22 8 22 5 c20 6 22 12 22 91 0 46 -3
99 -6 116 l-6 31 -153 0 c-130 0 -154 -2 -159 -16z m238 -69 c0 -16 -1 -60 -2
-97 l-2 -68 -30 0 c-27 0 -30 3 -30 33 l-1 32 -14 -32 c-11 -27 -20 -33 -45
-33 l-30 0 16 38 c8 20 27 64 41 97 24 58 26 60 61 60 35 0 37 -2 36 -30z
m-109 -202 c-20 -48 -18 -53 14 -53 29 0 31 2 31 35 0 33 2 35 33 35 32 0 33
-2 29 -31 -4 -24 0 -31 17 -36 28 -7 31 -63 2 -63 -15 0 -18 -7 -17 -37 1 -35
-1 -37 -31 -38 -32 -1 -33 1 -33 37 l0 38 -65 0 c-65 0 -65 0 -65 29 0 16 7
45 15 65 13 30 20 36 46 36 26 0 30 -3 24 -17z"/>
<path d="M1047 704 c-4 -4 -7 -58 -7 -120 0 -99 2 -113 18 -117 16 -4 16 -5 0
-6 -10 0 -18 -8 -18 -16 0 -8 8 -15 18 -15 16 -1 16 -1 -1 -14 -15 -12 -17
-28 -15 -127 l3 -114 155 0 155 0 3 118 c2 100 0 117 -13 117 -8 0 -15 5 -15
11 0 6 7 9 15 5 10 -4 15 1 15 14 0 13 -5 18 -15 14 -8 -4 -15 -1 -15 5 0 6 7
11 15 11 13 0 15 17 13 118 l-3 117 -151 3 c-82 1 -153 -1 -157 -4z m241 -76
c-3 -33 -4 -33 -60 -36 l-58 -3 0 -40 c0 -37 1 -39 21 -29 32 17 77 3 94 -31
18 -34 19 -34 -75 -28 -14 1 -39 -1 -57 -3 -17 -3 -35 -2 -40 1 -5 3 -8 50 -5
104 l4 97 90 0 89 0 -3 -32z m-123 -203 c0 -5 -15 -11 -32 -13 -25 -3 -33 1
-33 13 0 12 8 16 33 13 17 -2 32 -7 32 -13z m135 -50 c0 -38 -6 -78 -15 -94
-31 -62 -130 -66 -165 -8 -11 18 -20 47 -20 65 0 29 3 32 29 32 25 0 30 -5 35
-34 4 -19 14 -37 23 -40 30 -12 43 13 43 80 l0 64 35 0 35 0 0 -65z"/>
<path d="M1466 679 c-8 -40 -8 -172 0 -193 3 -9 14 -16 23 -17 11 0 9 -3 -6
-9 -27 -11 -30 -30 -5 -30 14 0 15 -2 2 -10 -20 -12 -28 -213 -10 -235 19 -23
305 -22 314 1 3 9 6 63 6 120 0 86 -3 104 -15 104 -8 0 -15 5 -15 10 0 6 7 10
16 10 9 0 14 6 12 13 -3 6 -10 12 -16 12 -5 0 -14 3 -18 8 -4 4 2 7 14 7 21 0
22 4 22 104 0 57 -3 111 -6 120 -5 14 -29 16 -159 16 l-152 0 -7 -31z m207
-30 c27 -12 45 -40 49 -79 3 -22 -1 -25 -29 -28 -26 -3 -32 1 -35 19 -2 12
-11 27 -21 33 -26 16 -47 -16 -47 -70 l0 -43 28 16 c34 19 77 12 92 -17 10
-18 7 -20 -27 -21 -21 0 -63 -1 -95 -2 l-56 -2 -6 48 c-9 66 8 123 42 141 33
18 72 20 105 5z m-81 -272 c-3 -50 0 -66 13 -77 12 -10 21 -11 33 -3 13 8 17
26 17 77 l0 66 38 0 37 0 0 -60 c0 -75 -20 -127 -55 -140 -54 -20 -110 -7
-134 33 -13 20 -24 143 -14 160 2 4 19 7 36 7 l32 0 -3 -63z"/>
<path d="M1897 703 c-4 -3 -7 -57 -7 -119 0 -99 2 -113 18 -117 16 -4 16 -5 0
-6 -11 -1 -18 -9 -18 -21 0 -13 5 -18 15 -14 8 4 15 1 15 -5 0 -6 -7 -11 -15
-11 -23 0 -22 -225 1 -234 9 -3 78 -6 155 -6 137 0 140 0 148 23 14 36 7 202
-8 221 -11 14 -11 16 3 16 22 0 16 24 -9 32 -19 6 -19 6 1 7 22 1 23 8 15 209
l-1 32 -153 0 c-85 0 -157 -3 -160 -7z m253 -83 c0 -24 -27 -145 -35 -158 -1
-1 -16 -4 -34 -7 -36 -4 -37 1 -16 71 8 27 15 52 15 57 0 4 -29 7 -65 7 l-65
0 0 30 0 30 100 0 100 0 0 -30z m-40 -182 c-1 -2 -13 -48 -28 -103 -27 -99
-28 -100 -60 -103 -37 -4 -38 0 -18 71 8 29 20 71 26 95 10 39 13 42 45 42 19
0 35 -1 35 -2z"/>
<path d="M2320 591 c0 -105 2 -120 18 -124 16 -4 16 -5 0 -6 -22 -1 -24 -31
-3 -31 8 0 15 -4 15 -10 0 -5 -7 -10 -15 -10 -12 0 -15 -19 -15 -115 0 -137
-15 -127 180 -123 l135 3 3 118 c2 100 0 117 -13 117 -8 0 -15 5 -15 10 0 6 5
9 12 8 20 -5 21 30 1 35 -17 4 -17 5 0 6 16 1 17 12 15 119 l-3 117 -157 3
-158 3 0 -120z m237 34 c30 -34 32 -111 4 -146 -16 -21 -26 -24 -82 -23 -35 1
-68 2 -72 3 -17 2 -38 74 -32 110 11 66 48 94 115 87 32 -3 50 -11 67 -31z
m13 -204 c5 -11 10 -45 10 -76 0 -49 -4 -60 -29 -86 -32 -31 -76 -38 -126 -19
-46 17 -68 101 -44 169 l11 31 84 0 c72 0 85 -3 94 -19z"/>
<path d="M2450 581 c-15 -29 -12 -67 6 -85 8 -9 19 -16 23 -16 17 0 31 27 31
60 0 55 -38 81 -60 41z"/>
<path d="M2446 405 c-11 -30 -6 -92 9 -105 8 -6 22 -10 32 -8 15 3 18 13 18
63 0 57 -1 60 -26 63 -17 2 -29 -3 -33 -13z"/>
<path d="M2746 694 c-3 -9 -6 -63 -6 -120 0 -98 1 -104 21 -104 11 0 18 -4 14
-10 -3 -5 -12 -7 -20 -3 -9 3 -15 -1 -15 -11 0 -9 8 -16 18 -16 16 -1 16 -1 0
-14 -15 -11 -18 -30 -18 -114 0 -55 3 -107 6 -116 5 -14 28 -16 153 -16 101 0
151 4 159 12 8 8 12 49 12 120 0 89 -3 108 -15 108 -8 0 -15 5 -15 10 0 6 7
10 15 10 23 0 18 20 -7 29 l-22 8 22 5 c21 6 22 12 22 100 0 150 14 138 -165
138 -130 0 -154 -2 -159 -16z m225 -63 c29 -30 32 -41 29 -121 -2 -56 -4 -58
-35 -52 -23 4 -25 9 -25 57 0 35 -5 59 -16 69 -34 34 -54 8 -54 -69 0 -65 3
-63 -62 -56 -12 1 -9 104 3 140 22 64 110 82 160 32z m31 -266 c-3 -80 -14
-108 -49 -124 -61 -28 -126 -4 -142 54 -11 42 -4 55 29 55 24 0 29 -5 32 -27
4 -34 36 -43 55 -17 7 10 13 38 13 62 0 43 -1 44 -18 29 -25 -23 -68 -21 -92
3 -36 36 -25 41 78 38 l97 -3 -3 -70z"/>
</g>
</svg>
